<svg width="213" height="27" viewBox="0 0 213 27" fill="none" xmlns="http://www.w3.org/2000/svg">
<g clip-path="url(#clip0_1773_14066)">
<path d="M15.622 16.1175C18.5871 16.1175 20.9908 13.8701 20.9908 11.0978C20.9908 8.32552 18.5871 6.07812 15.622 6.07812C12.6568 6.07812 10.2531 8.32552 10.2531 11.0978C10.2531 13.8701 12.6568 16.1175 15.622 16.1175Z" fill="#F73737"/>
<path d="M30.4555 3.04429C29.588 1.63793 28.1796 0.626611 26.5008 0.210497C24.8219 -0.205617 23.0643 0.0050738 21.5601 0.816233L15.6617 4.00293L9.76333 0.816233C8.25916 0.0050738 6.50147 -0.210884 4.82266 0.210497C3.14385 0.631878 1.74108 1.63793 0.873507 3.04429C-0.923612 5.95182 0.146772 9.68104 3.25652 11.3613L9.1549 14.548V20.9161C9.1549 24.2714 12.0731 27.0051 15.6673 27.0051C19.2616 27.0051 22.1798 24.2766 22.1798 20.9161V14.5427L28.0782 11.356C31.1823 9.68104 32.2527 5.95182 30.4555 3.04429ZM18.3208 6.9684C19.0137 7.36344 19.594 7.91124 20.0165 8.55911C20.0334 8.58545 20.0503 8.61705 20.0672 8.64339C20.0897 8.67499 20.1066 8.7066 20.1292 8.74347C20.5179 9.40714 20.732 10.1498 20.7545 10.9083C20.7545 10.9188 20.7545 10.9346 20.7545 10.9452C20.7714 11.7827 20.5517 12.636 20.0728 13.4103C19.1658 14.8798 17.4757 15.7911 15.6617 15.7911C13.8477 15.7911 12.1576 14.8798 11.2506 13.4103C10.7717 12.6307 10.552 11.7827 10.5689 10.9399C10.5689 10.9294 10.5689 10.9188 10.5689 10.9083C10.5915 10.1498 10.8055 9.40187 11.1943 8.7382C11.2112 8.71186 11.2281 8.68026 11.245 8.65392C11.2675 8.62232 11.2844 8.58545 11.3069 8.55384C11.7295 7.90597 12.3097 7.35818 13.0027 6.96313C13.0139 6.95786 13.0196 6.9526 13.0308 6.94733C13.797 6.51541 14.6984 6.26258 15.6561 6.26258C16.6138 6.26258 17.5152 6.51015 18.2813 6.94733C18.2982 6.95786 18.3095 6.96313 18.3208 6.9684ZM3.96072 10.213C1.527 8.90148 0.693232 5.98342 2.096 3.70796C2.77766 2.6071 3.87622 1.81701 5.18885 1.49044C5.62827 1.37983 6.07332 1.32716 6.51274 1.32716C7.39722 1.32716 8.26479 1.54312 9.04786 1.9645L14.2364 4.76668L12.3999 5.75693C12.3661 5.778 12.3323 5.7938 12.2985 5.81487C12.2872 5.82013 12.2759 5.83067 12.259 5.83594C11.3464 6.3574 10.614 7.06321 10.0901 7.8691C10.0619 7.91124 10.0394 7.94811 10.0168 7.99025C9.99431 8.02712 9.96614 8.06926 9.9436 8.10613C9.45912 8.93309 9.1718 9.87593 9.14363 10.8767C9.14363 10.8925 9.14363 10.903 9.14363 10.9188C9.14363 10.9557 9.138 10.9926 9.138 11.0295V13.0152L3.96072 10.213ZM20.7545 20.9161C20.7545 23.5392 18.4729 25.6777 15.6617 25.6777C12.8505 25.6777 10.5689 23.5445 10.5689 20.9161V15.3117L12.4055 16.302C13.397 16.834 14.5181 17.1184 15.6561 17.1184H15.6617H15.6673C16.8053 17.1184 17.9264 16.834 18.9179 16.302L20.7545 15.3117V20.9161ZM27.3627 10.213L22.1742 13.0152V11.0295C22.1742 10.9926 22.1742 10.9557 22.1685 10.9188C22.1685 10.903 22.1685 10.8872 22.1685 10.8714C22.1404 9.87066 21.8587 8.92782 21.3685 8.10086C21.346 8.05872 21.3178 8.01658 21.2897 7.97445C21.2671 7.93757 21.2446 7.9007 21.2221 7.86383C20.6981 7.05794 19.9658 6.35213 19.0531 5.83067C19.0419 5.8254 19.0306 5.81487 19.0137 5.8096C18.9799 5.78853 18.9461 5.77273 18.9123 5.75166L17.0757 4.76141L22.2643 1.95923C23.0474 1.53785 23.9206 1.32189 24.7994 1.32189C25.2445 1.32189 25.6895 1.37456 26.1233 1.48518C27.4359 1.81175 28.5345 2.60184 29.2162 3.70269C30.6302 5.98342 29.7964 8.90148 27.3627 10.213Z" fill="#2C2C2C"/>
<path d="M44.3421 7.29024V10.2926H41.8182V7.29024L38.2465 0.463867H40.883L43.0802 5.11486L45.2942 0.463867H47.9138L44.3421 7.29024Z" fill="#2C2C2C"/>
<path d="M49.4574 6.09984V0.463867H51.908V6.11038C51.908 7.4746 52.7756 8.40164 54.2347 8.40164C55.7051 8.40164 56.5726 7.46933 56.5726 6.11038V0.463867H59.0233V6.09984C59.0233 8.79668 57.1304 10.5033 54.2291 10.5033C51.3954 10.5033 49.4574 8.79668 49.4574 6.09984Z" fill="#2C2C2C"/>
<path d="M68.2229 10.2926L64.2738 5.36769V10.2926H61.8513V0.463867H64.2738V4.8515L68.1272 0.463867H70.9552L66.9216 5.00952L71.1806 10.2873H68.2229V10.2926Z" fill="#2C2C2C"/>
<path d="M72.1664 5.4042C72.1664 2.5072 74.4931 0.321289 77.6423 0.321289C80.8366 0.321289 83.1463 2.5072 83.1463 5.4042C83.1463 8.3012 80.8366 10.5029 77.6423 10.5029C74.4875 10.5029 72.1664 8.3012 72.1664 5.4042ZM80.7126 5.4042C80.7126 3.68707 79.4394 2.40186 77.6423 2.40186C75.8621 2.40186 74.6002 3.68707 74.6002 5.4042C74.6002 7.09499 75.8621 8.39074 77.6423 8.39074C79.4338 8.39074 80.7126 7.09499 80.7126 5.4042Z" fill="#2C2C2C"/>
<path d="M90.2954 7.29024V10.2926H87.7715V7.29024L84.1998 0.463867H86.8364L89.0335 5.11486L91.2475 0.463867H93.8671L90.2954 7.29024Z" fill="#2C2C2C"/>
<path d="M95.4163 6.09984V0.463867H97.8669V6.11038C97.8669 7.4746 98.7345 8.40164 100.194 8.40164C101.664 8.40164 102.532 7.46933 102.532 6.11038V0.463867H104.982V6.09984C104.982 8.79668 103.089 10.5033 100.188 10.5033C97.3486 10.5033 95.4163 8.79668 95.4163 6.09984Z" fill="#2C2C2C"/>
<path d="M114.176 10.2926L110.227 5.36769V10.2926H107.805V0.463867H110.227V4.8515L114.08 0.463867H116.909L112.875 5.00952L117.134 10.2873H114.176V10.2926Z" fill="#2C2C2C"/>
<path d="M118.12 5.4042C118.12 2.5072 120.446 0.321289 123.596 0.321289C126.79 0.321289 129.1 2.5072 129.1 5.4042C129.1 8.3012 126.79 10.5029 123.596 10.5029C120.446 10.5029 118.12 8.3012 118.12 5.4042ZM126.666 5.4042C126.666 3.68707 125.393 2.40186 123.596 2.40186C121.815 2.40186 120.553 3.68707 120.553 5.4042C120.553 7.09499 121.815 8.39074 123.596 8.39074C125.393 8.39074 126.666 7.09499 126.666 5.4042Z" fill="#2C2C2C"/>
<path d="M49.7785 23.8237V26.2729H39.5366V25.9674L45.3336 16.6338H39.8521V14.1846H49.7672V14.4901L44.021 23.8237H49.7785Z" fill="#333333"/>
<path d="M60.9837 23.824V26.2733H52.2967V14.1797H60.8654V16.629H55.1248V18.8201H60.5894V21.1114H55.1248V23.8188H60.9837V23.824Z" fill="#333333"/>
<path d="M75.986 14.1798V26.3682H75.6593L67.023 19.4839V26.2734H64.0766V14.085H64.4033L73.0228 20.9219V14.1798H75.986Z" fill="#333333"/>
<path d="M80.3915 18.3359C81.5126 18.3359 82.4196 19.184 82.4196 20.2322C82.4196 21.2803 81.5126 22.1284 80.3915 22.1284C79.2704 22.1284 78.3634 21.2803 78.3634 20.2322C78.3634 19.1734 79.276 18.3359 80.3915 18.3359Z" fill="#2C2C2C"/>
<path d="M90.5996 26.9106C86.4871 26.9106 83.3829 24.0505 83.3829 20.258C83.3829 16.4656 86.4927 13.6055 90.6165 13.6055C91.6136 13.6055 92.5826 13.7793 93.2136 14.0637C93.36 14.1269 93.4502 14.2691 93.4502 14.4166V17.045C93.4502 17.1819 93.3713 17.3084 93.2474 17.3821C93.1234 17.4506 92.9657 17.4611 92.8361 17.3979C92.2559 17.1187 91.608 16.9923 90.7855 16.9923C88.7011 16.9923 87.242 18.3355 87.242 20.258C87.242 22.17 88.7011 23.5079 90.7855 23.5079C91.6193 23.5079 92.2728 23.3868 92.8418 23.1287C92.9713 23.0707 93.1291 23.076 93.253 23.1498C93.3769 23.2235 93.4502 23.3499 93.4502 23.4869V26.0836C93.4502 26.2311 93.3657 26.3628 93.2305 26.4313C92.3685 26.8632 91.101 26.9106 90.5996 26.9106ZM90.6165 14.4008C86.9772 14.4008 84.228 16.9186 84.228 20.2633C84.228 23.608 86.9659 26.1258 90.5996 26.1258C91.3883 26.1258 92.115 26.0204 92.6108 25.8361V24.0715C92.0756 24.2295 91.4841 24.3033 90.7911 24.3033C88.2504 24.3033 86.4025 22.6072 86.4025 20.2633C86.4025 17.9141 88.2504 16.2075 90.7911 16.2075C91.4672 16.2075 92.07 16.2918 92.6108 16.4603V14.6853C92.0925 14.5062 91.3545 14.4008 90.6165 14.4008Z" fill="#2C2C2C"/>
<path d="M101.979 26.9264C97.8951 26.9264 94.8135 24.061 94.8135 20.258C94.8135 16.4656 97.8951 13.6055 101.979 13.6055C106.086 13.6055 109.179 16.4656 109.179 20.258C109.179 24.061 106.081 26.9264 101.979 26.9264ZM101.979 14.4008C98.374 14.4008 95.6586 16.9186 95.6586 20.2633C95.6586 23.6133 98.374 26.1416 101.979 26.1416C105.664 26.1416 108.334 23.6712 108.334 20.2633C108.334 16.8659 105.658 14.4008 101.979 14.4008ZM101.979 24.3296C99.6077 24.3296 97.8162 22.5809 97.8162 20.258C97.8162 17.8878 99.5683 16.1706 101.979 16.1706C104.413 16.1706 106.177 17.8878 106.177 20.258C106.177 22.5809 104.374 24.3296 101.979 24.3296ZM101.979 16.9607C100.058 16.9607 98.6613 18.346 98.6613 20.258C98.6613 22.1595 100.058 23.5395 101.979 23.5395C103.923 23.5395 105.331 22.1595 105.331 20.258C105.331 18.3513 103.923 16.9607 101.979 16.9607Z" fill="#2C2C2C"/>
<path d="M122.514 26.6679H119.235C119.077 26.6679 118.937 26.5889 118.863 26.4572L116.993 23.1968C116.379 23.2284 115.697 23.2179 115.089 23.1494V26.2676C115.089 26.4836 114.897 26.6626 114.666 26.6626H111.613C111.382 26.6626 111.19 26.4836 111.19 26.2676V14.1792C111.19 13.9633 111.382 13.7842 111.613 13.7842H116.925C120.525 13.7842 122.677 15.4802 122.677 18.3246C122.677 20.0101 121.968 21.3322 120.61 22.1749L122.886 26.0832C122.959 26.2044 122.953 26.3519 122.88 26.473C122.801 26.5942 122.66 26.6679 122.514 26.6679ZM119.489 25.8778H121.804L119.68 22.2223C119.568 22.0327 119.646 21.7957 119.844 21.6903C121.145 21.0161 121.832 19.8521 121.832 18.3298C121.832 15.949 120.046 14.5795 116.925 14.5795H112.035V25.8831H114.244V22.7017C114.244 22.5858 114.3 22.4752 114.396 22.3962C114.492 22.3171 114.621 22.2908 114.74 22.3119C115.235 22.3962 115.748 22.433 116.306 22.433C116.627 22.433 116.925 22.4172 117.213 22.4014C117.376 22.3856 117.534 22.4752 117.613 22.6068L119.489 25.8778ZM116.221 20.9108C115.59 20.9108 115.055 20.8739 114.593 20.7896C114.39 20.7528 114.249 20.5895 114.249 20.3999V16.6443C114.249 16.4283 114.441 16.2493 114.672 16.2493H116.638C119.083 16.2493 119.596 17.4555 119.596 18.4668C119.59 19.5834 119.004 20.9108 116.221 20.9108ZM115.089 20.0628C115.421 20.0996 115.793 20.1207 116.216 20.1207C118.452 20.1207 118.739 19.2358 118.739 18.4668C118.739 17.761 118.486 17.0393 116.627 17.0393H115.083V20.0628H115.089Z" fill="#2C2C2C"/>
<path d="M133.736 26.6679H125.043C124.812 26.6679 124.621 26.4888 124.621 26.2729V14.1792C124.621 13.9633 124.812 13.7842 125.043 13.7842H133.612C133.843 13.7842 134.035 13.9633 134.035 14.1792V16.6285C134.035 16.8445 133.843 17.0235 133.612 17.0235H128.294V18.4246H133.336C133.567 18.4246 133.759 18.6037 133.759 18.8197V21.1109C133.759 21.3269 133.567 21.506 133.336 21.506H128.294V23.4233H133.736C133.967 23.4233 134.159 23.6024 134.159 23.8183V26.2676C134.159 26.4888 133.967 26.6679 133.736 26.6679ZM125.466 25.8778H133.314V24.2186H127.871C127.641 24.2186 127.449 24.0395 127.449 23.8236V21.1162C127.449 20.9003 127.641 20.7212 127.871 20.7212H132.914V19.22H127.871C127.641 19.22 127.449 19.0409 127.449 18.825V16.6338C127.449 16.4178 127.641 16.2387 127.871 16.2387H133.19V14.5795H125.466V25.8778Z" fill="#2C2C2C"/>
<path d="M137.606 18.3359C138.727 18.3359 139.634 19.184 139.634 20.2322C139.634 21.2803 138.727 22.1284 137.606 22.1284C136.485 22.1284 135.578 21.2803 135.578 20.2322C135.578 19.1734 136.497 18.3359 137.606 18.3359Z" fill="#2C2C2C"/>
<path d="M141.296 25.7887V23.3395C141.865 23.7398 142.761 24.1453 143.916 24.1453C145.522 24.1453 146.226 23.3869 146.226 22.6442C146.226 22.0332 145.865 21.517 144.913 21.0798L143.617 20.4846C142.203 19.8051 141.274 18.9044 141.274 17.4875C141.274 15.4702 143.189 14.0059 146.186 14.0059C147.307 14.0059 148.169 14.2007 148.62 14.443V16.8923C148.152 16.6026 147.341 16.3445 146.502 16.3445C145.189 16.3445 144.417 16.8291 144.417 17.5876C144.417 18.088 144.744 18.4251 145.538 18.778L146.778 19.3574C148.468 20.1317 149.245 21.2115 149.245 22.66C149.245 24.7563 147.64 26.5314 144.226 26.5314C143.02 26.5314 141.95 26.2259 141.296 25.7887Z" fill="#2C2C2C"/>
<path d="M157.972 22.581V26.2733H154.868V22.581L150.474 14.1797H153.713L156.423 19.9052L159.149 14.1797H162.372L157.972 22.581Z" fill="#2C2C2C"/>
<path d="M163.949 25.7887V23.3395C164.518 23.7398 165.414 24.1453 166.569 24.1453C168.174 24.1453 168.878 23.3869 168.878 22.6442C168.878 22.0332 168.518 21.517 167.566 21.0798L166.27 20.4846C164.856 19.8051 163.927 18.9044 163.927 17.4875C163.927 15.4702 165.842 14.0059 168.839 14.0059C169.96 14.0059 170.822 14.2007 171.273 14.443V16.8923C170.805 16.6026 169.994 16.3445 169.155 16.3445C167.842 16.3445 167.07 16.8291 167.07 17.5876C167.07 18.088 167.397 18.4251 168.191 18.778L169.431 19.3574C171.121 20.1317 171.898 21.2115 171.898 22.66C171.898 24.7563 170.293 26.5314 166.879 26.5314C165.673 26.5314 164.608 26.2259 163.949 25.7887Z" fill="#2C2C2C"/>
<path d="M176.535 16.6338H173.656V14.1846H182.416V16.6338H179.554V26.2729H176.535V16.6338Z" fill="#2C2C2C"/>
<path d="M193.711 23.824V26.2733H185.019V14.1797H193.587V16.629H187.847V18.8201H193.311V21.1114H187.847V23.8188H193.711V23.824Z" fill="#2C2C2C"/>
<path d="M209.091 26.2736L208.122 20.0161L204.297 25.1411H203.829L199.914 19.9845L198.951 26.2736H195.97L197.97 14.0693H198.331L204.072 21.354L209.711 14.0693H210.071L212.071 26.2736H209.091Z" fill="#2C2C2C"/>
</g>
<defs>
<clipPath id="clip0_1773_14066">
<rect width="212.071" height="27" fill="white"/>
</clipPath>
</defs>
</svg>
