<svg width="28" height="28" viewBox="0 0 28 28" fill="none" xmlns="http://www.w3.org/2000/svg">
<circle cx="14" cy="14" r="14" fill="#9171D8"/>
<mask id="mask0_422_298" style="mask-type:alpha" maskUnits="userSpaceOnUse" x="0" y="0" width="28" height="28">
<rect width="28" height="28" fill="#D9D9D9"/>
</mask>
<g mask="url(#mask0_422_298)">
<path d="M6.47467 20.5625C7.69967 19.7069 8.91495 19.0507 10.1205 18.5937C11.3261 18.1368 12.6191 17.9083 13.9997 17.9083C15.3802 17.9083 16.6781 18.1368 17.8934 18.5937C19.1087 19.0507 20.3288 19.7069 21.5538 20.5625C22.4094 19.5125 23.017 18.4528 23.3768 17.3833C23.7365 16.3139 23.9163 15.1861 23.9163 14C23.9163 11.1806 22.9684 8.82292 21.0726 6.92708C19.1768 5.03125 16.8191 4.08333 13.9997 4.08333C11.1802 4.08333 8.82259 5.03125 6.92676 6.92708C5.03092 8.82292 4.08301 11.1806 4.08301 14C4.08301 15.1861 4.26773 16.3139 4.63717 17.3833C5.00662 18.4528 5.61912 19.5125 6.47467 20.5625ZM13.9997 14.875C12.8719 14.875 11.924 14.491 11.1559 13.7229C10.3879 12.9549 10.0038 12.0069 10.0038 10.8792C10.0038 9.75139 10.3879 8.80347 11.1559 8.03542C11.924 7.26736 12.8719 6.88333 13.9997 6.88333C15.1275 6.88333 16.0754 7.26736 16.8434 8.03542C17.6115 8.80347 17.9955 9.75139 17.9955 10.8792C17.9955 12.0069 17.6115 12.9549 16.8434 13.7229C16.0754 14.491 15.1275 14.875 13.9997 14.875ZM13.9997 25.6667C12.4052 25.6667 10.8983 25.3604 9.47884 24.7479C8.0594 24.1354 6.81981 23.2993 5.76009 22.2396C4.70037 21.1799 3.86426 19.9403 3.25176 18.5208C2.63926 17.1014 2.33301 15.5944 2.33301 14C2.33301 12.3861 2.63926 10.8743 3.25176 9.46458C3.86426 8.05486 4.70037 6.82014 5.76009 5.76042C6.81981 4.70069 8.0594 3.86458 9.47884 3.25208C10.8983 2.63958 12.4052 2.33333 13.9997 2.33333C15.6136 2.33333 17.1254 2.63958 18.5351 3.25208C19.9448 3.86458 21.1795 4.70069 22.2393 5.76042C23.299 6.82014 24.1351 8.05486 24.7476 9.46458C25.3601 10.8743 25.6663 12.3861 25.6663 14C25.6663 15.5944 25.3601 17.1014 24.7476 18.5208C24.1351 19.9403 23.299 21.1799 22.2393 22.2396C21.1795 23.2993 19.9448 24.1354 18.5351 24.7479C17.1254 25.3604 15.6136 25.6667 13.9997 25.6667ZM13.9997 23.9167C15.0691 23.9167 16.1143 23.7611 17.1351 23.45C18.1559 23.1389 19.1622 22.5944 20.1538 21.8167C19.1622 21.1167 18.1511 20.5819 17.1205 20.2125C16.09 19.8431 15.0497 19.6583 13.9997 19.6583C12.9497 19.6583 11.9094 19.8431 10.8788 20.2125C9.84829 20.5819 8.83717 21.1167 7.84551 21.8167C8.83717 22.5944 9.84342 23.1389 10.8643 23.45C11.8851 23.7611 12.9302 23.9167 13.9997 23.9167ZM13.9997 13.125C14.6608 13.125 15.2004 12.916 15.6184 12.4979C16.0365 12.0799 16.2455 11.5403 16.2455 10.8792C16.2455 10.2181 16.0365 9.67847 15.6184 9.26042C15.2004 8.84236 14.6608 8.63333 13.9997 8.63333C13.3386 8.63333 12.799 8.84236 12.3809 9.26042C11.9629 9.67847 11.7538 10.2181 11.7538 10.8792C11.7538 11.5403 11.9629 12.0799 12.3809 12.4979C12.799 12.916 13.3386 13.125 13.9997 13.125Z" fill="white"/>
</g>
</svg>
